<mxfile host="app.diagrams.net" modified="2023-11-20T10:21:08.075Z" agent="Mozilla/5.0 (Windows NT 10.0; Win64; x64) AppleWebKit/537.36 (KHTML, like Gecko) Chrome/119.0.0.0 Safari/537.36 Edg/119.0.0.0" etag="U9HZLstMLR2oOscqWfQX" version="22.1.3" type="device">
  <diagram id="C5RBs43oDa-KdzZeNtuy" name="Page-1">
    <mxGraphModel dx="1155" dy="661" grid="1" gridSize="10" guides="1" tooltips="1" connect="1" arrows="1" fold="1" page="1" pageScale="1" pageWidth="827" pageHeight="1169" math="0" shadow="0">
      <root>
        <mxCell id="WIyWlLk6GJQsqaUBKTNV-0" />
        <mxCell id="WIyWlLk6GJQsqaUBKTNV-1" parent="WIyWlLk6GJQsqaUBKTNV-0" />
        <mxCell id="EGvyy3Lo6LBRKcF2sGLg-6" value="" style="edgeStyle=orthogonalEdgeStyle;rounded=0;orthogonalLoop=1;jettySize=auto;html=1;" edge="1" parent="WIyWlLk6GJQsqaUBKTNV-1" source="EGvyy3Lo6LBRKcF2sGLg-2" target="EGvyy3Lo6LBRKcF2sGLg-5">
          <mxGeometry relative="1" as="geometry" />
        </mxCell>
        <mxCell id="EGvyy3Lo6LBRKcF2sGLg-2" value="3 čísla&amp;nbsp;&lt;br&gt;X,Y,Z" style="shape=parallelogram;html=1;strokeWidth=2;perimeter=parallelogramPerimeter;whiteSpace=wrap;rounded=1;arcSize=12;size=0.23;" vertex="1" parent="WIyWlLk6GJQsqaUBKTNV-1">
          <mxGeometry x="40" y="140" width="100" height="60" as="geometry" />
        </mxCell>
        <mxCell id="EGvyy3Lo6LBRKcF2sGLg-4" value="" style="edgeStyle=orthogonalEdgeStyle;rounded=0;orthogonalLoop=1;jettySize=auto;html=1;" edge="1" parent="WIyWlLk6GJQsqaUBKTNV-1" source="EGvyy3Lo6LBRKcF2sGLg-3" target="EGvyy3Lo6LBRKcF2sGLg-2">
          <mxGeometry relative="1" as="geometry" />
        </mxCell>
        <mxCell id="EGvyy3Lo6LBRKcF2sGLg-3" value="minimum ze 3 čísel" style="strokeWidth=2;html=1;shape=mxgraph.flowchart.start_2;whiteSpace=wrap;verticalAlign=top;" vertex="1" parent="WIyWlLk6GJQsqaUBKTNV-1">
          <mxGeometry x="40" y="40" width="100" height="60" as="geometry" />
        </mxCell>
        <mxCell id="EGvyy3Lo6LBRKcF2sGLg-8" value="" style="edgeStyle=orthogonalEdgeStyle;rounded=0;orthogonalLoop=1;jettySize=auto;html=1;" edge="1" parent="WIyWlLk6GJQsqaUBKTNV-1" source="EGvyy3Lo6LBRKcF2sGLg-5" target="EGvyy3Lo6LBRKcF2sGLg-7">
          <mxGeometry relative="1" as="geometry" />
        </mxCell>
        <mxCell id="EGvyy3Lo6LBRKcF2sGLg-12" value="ano" style="edgeLabel;html=1;align=center;verticalAlign=middle;resizable=0;points=[];" vertex="1" connectable="0" parent="EGvyy3Lo6LBRKcF2sGLg-8">
          <mxGeometry x="-0.25" y="2" relative="1" as="geometry">
            <mxPoint as="offset" />
          </mxGeometry>
        </mxCell>
        <mxCell id="EGvyy3Lo6LBRKcF2sGLg-17" value="" style="edgeStyle=orthogonalEdgeStyle;rounded=0;orthogonalLoop=1;jettySize=auto;html=1;" edge="1" parent="WIyWlLk6GJQsqaUBKTNV-1" source="EGvyy3Lo6LBRKcF2sGLg-5" target="EGvyy3Lo6LBRKcF2sGLg-16">
          <mxGeometry relative="1" as="geometry" />
        </mxCell>
        <mxCell id="EGvyy3Lo6LBRKcF2sGLg-33" value="ne" style="edgeLabel;html=1;align=center;verticalAlign=middle;resizable=0;points=[];" vertex="1" connectable="0" parent="EGvyy3Lo6LBRKcF2sGLg-17">
          <mxGeometry x="-0.1444" y="2" relative="1" as="geometry">
            <mxPoint as="offset" />
          </mxGeometry>
        </mxCell>
        <mxCell id="EGvyy3Lo6LBRKcF2sGLg-5" value="X &amp;gt; Y" style="rhombus;whiteSpace=wrap;html=1;strokeWidth=2;rounded=1;arcSize=12;" vertex="1" parent="WIyWlLk6GJQsqaUBKTNV-1">
          <mxGeometry x="50" y="230" width="80" height="80" as="geometry" />
        </mxCell>
        <mxCell id="EGvyy3Lo6LBRKcF2sGLg-10" value="" style="edgeStyle=orthogonalEdgeStyle;rounded=0;orthogonalLoop=1;jettySize=auto;html=1;" edge="1" parent="WIyWlLk6GJQsqaUBKTNV-1" source="EGvyy3Lo6LBRKcF2sGLg-7" target="EGvyy3Lo6LBRKcF2sGLg-9">
          <mxGeometry relative="1" as="geometry" />
        </mxCell>
        <mxCell id="EGvyy3Lo6LBRKcF2sGLg-11" value="ano" style="edgeLabel;html=1;align=center;verticalAlign=middle;resizable=0;points=[];" vertex="1" connectable="0" parent="EGvyy3Lo6LBRKcF2sGLg-10">
          <mxGeometry x="-0.1" y="-1" relative="1" as="geometry">
            <mxPoint as="offset" />
          </mxGeometry>
        </mxCell>
        <mxCell id="EGvyy3Lo6LBRKcF2sGLg-23" value="" style="edgeStyle=orthogonalEdgeStyle;rounded=0;orthogonalLoop=1;jettySize=auto;html=1;" edge="1" parent="WIyWlLk6GJQsqaUBKTNV-1" source="EGvyy3Lo6LBRKcF2sGLg-7" target="EGvyy3Lo6LBRKcF2sGLg-22">
          <mxGeometry relative="1" as="geometry" />
        </mxCell>
        <mxCell id="EGvyy3Lo6LBRKcF2sGLg-24" value="ne" style="edgeLabel;html=1;align=center;verticalAlign=middle;resizable=0;points=[];" vertex="1" connectable="0" parent="EGvyy3Lo6LBRKcF2sGLg-23">
          <mxGeometry x="-0.2189" y="-1" relative="1" as="geometry">
            <mxPoint as="offset" />
          </mxGeometry>
        </mxCell>
        <mxCell id="EGvyy3Lo6LBRKcF2sGLg-7" value="Y &amp;gt; Z" style="rhombus;whiteSpace=wrap;html=1;strokeWidth=2;rounded=1;arcSize=12;" vertex="1" parent="WIyWlLk6GJQsqaUBKTNV-1">
          <mxGeometry x="50" y="350" width="80" height="80" as="geometry" />
        </mxCell>
        <mxCell id="EGvyy3Lo6LBRKcF2sGLg-9" value="Z" style="ellipse;whiteSpace=wrap;html=1;strokeWidth=2;rounded=1;arcSize=12;" vertex="1" parent="WIyWlLk6GJQsqaUBKTNV-1">
          <mxGeometry x="170" y="370" width="75" height="40" as="geometry" />
        </mxCell>
        <mxCell id="EGvyy3Lo6LBRKcF2sGLg-20" value="" style="edgeStyle=orthogonalEdgeStyle;rounded=0;orthogonalLoop=1;jettySize=auto;html=1;" edge="1" parent="WIyWlLk6GJQsqaUBKTNV-1" source="EGvyy3Lo6LBRKcF2sGLg-16" target="EGvyy3Lo6LBRKcF2sGLg-9">
          <mxGeometry relative="1" as="geometry">
            <mxPoint x="290" y="270.0000000000001" as="targetPoint" />
          </mxGeometry>
        </mxCell>
        <mxCell id="EGvyy3Lo6LBRKcF2sGLg-34" value="ano" style="edgeLabel;html=1;align=center;verticalAlign=middle;resizable=0;points=[];" vertex="1" connectable="0" parent="EGvyy3Lo6LBRKcF2sGLg-20">
          <mxGeometry x="-0.2587" y="-1" relative="1" as="geometry">
            <mxPoint as="offset" />
          </mxGeometry>
        </mxCell>
        <mxCell id="EGvyy3Lo6LBRKcF2sGLg-26" value="" style="edgeStyle=orthogonalEdgeStyle;rounded=0;orthogonalLoop=1;jettySize=auto;html=1;" edge="1" parent="WIyWlLk6GJQsqaUBKTNV-1" source="EGvyy3Lo6LBRKcF2sGLg-16" target="EGvyy3Lo6LBRKcF2sGLg-25">
          <mxGeometry relative="1" as="geometry" />
        </mxCell>
        <mxCell id="EGvyy3Lo6LBRKcF2sGLg-27" value="ne" style="edgeLabel;html=1;align=center;verticalAlign=middle;resizable=0;points=[];" vertex="1" connectable="0" parent="EGvyy3Lo6LBRKcF2sGLg-26">
          <mxGeometry x="-0.0603" relative="1" as="geometry">
            <mxPoint as="offset" />
          </mxGeometry>
        </mxCell>
        <mxCell id="EGvyy3Lo6LBRKcF2sGLg-16" value="X &amp;gt; Z" style="rhombus;whiteSpace=wrap;html=1;strokeWidth=2;rounded=1;arcSize=12;" vertex="1" parent="WIyWlLk6GJQsqaUBKTNV-1">
          <mxGeometry x="170" y="230" width="80" height="80" as="geometry" />
        </mxCell>
        <mxCell id="EGvyy3Lo6LBRKcF2sGLg-22" value="Y" style="ellipse;whiteSpace=wrap;html=1;strokeWidth=2;rounded=1;arcSize=12;" vertex="1" parent="WIyWlLk6GJQsqaUBKTNV-1">
          <mxGeometry x="70" y="470" width="40" height="40" as="geometry" />
        </mxCell>
        <mxCell id="EGvyy3Lo6LBRKcF2sGLg-25" value="X" style="ellipse;whiteSpace=wrap;html=1;strokeWidth=2;rounded=1;arcSize=12;" vertex="1" parent="WIyWlLk6GJQsqaUBKTNV-1">
          <mxGeometry x="290" y="255" width="40" height="30" as="geometry" />
        </mxCell>
        <mxCell id="EGvyy3Lo6LBRKcF2sGLg-35" value="" style="edgeStyle=orthogonalEdgeStyle;rounded=0;orthogonalLoop=1;jettySize=auto;html=1;" edge="1" parent="WIyWlLk6GJQsqaUBKTNV-1" source="EGvyy3Lo6LBRKcF2sGLg-36" target="EGvyy3Lo6LBRKcF2sGLg-43">
          <mxGeometry relative="1" as="geometry" />
        </mxCell>
        <mxCell id="EGvyy3Lo6LBRKcF2sGLg-36" value="3 čísla&amp;nbsp;&lt;br&gt;X,Y,Z" style="shape=parallelogram;html=1;strokeWidth=2;perimeter=parallelogramPerimeter;whiteSpace=wrap;rounded=1;arcSize=12;size=0.23;" vertex="1" parent="WIyWlLk6GJQsqaUBKTNV-1">
          <mxGeometry x="400" y="130" width="100" height="60" as="geometry" />
        </mxCell>
        <mxCell id="EGvyy3Lo6LBRKcF2sGLg-37" value="" style="edgeStyle=orthogonalEdgeStyle;rounded=0;orthogonalLoop=1;jettySize=auto;html=1;" edge="1" parent="WIyWlLk6GJQsqaUBKTNV-1" source="EGvyy3Lo6LBRKcF2sGLg-38" target="EGvyy3Lo6LBRKcF2sGLg-36">
          <mxGeometry relative="1" as="geometry" />
        </mxCell>
        <mxCell id="EGvyy3Lo6LBRKcF2sGLg-38" value="maximum ze 3 čísel" style="strokeWidth=2;html=1;shape=mxgraph.flowchart.start_2;whiteSpace=wrap;verticalAlign=top;" vertex="1" parent="WIyWlLk6GJQsqaUBKTNV-1">
          <mxGeometry x="400" y="30" width="100" height="60" as="geometry" />
        </mxCell>
        <mxCell id="EGvyy3Lo6LBRKcF2sGLg-39" value="" style="edgeStyle=orthogonalEdgeStyle;rounded=0;orthogonalLoop=1;jettySize=auto;html=1;" edge="1" parent="WIyWlLk6GJQsqaUBKTNV-1" source="EGvyy3Lo6LBRKcF2sGLg-43" target="EGvyy3Lo6LBRKcF2sGLg-48">
          <mxGeometry relative="1" as="geometry" />
        </mxCell>
        <mxCell id="EGvyy3Lo6LBRKcF2sGLg-40" value="ano" style="edgeLabel;html=1;align=center;verticalAlign=middle;resizable=0;points=[];" vertex="1" connectable="0" parent="EGvyy3Lo6LBRKcF2sGLg-39">
          <mxGeometry x="-0.25" y="2" relative="1" as="geometry">
            <mxPoint as="offset" />
          </mxGeometry>
        </mxCell>
        <mxCell id="EGvyy3Lo6LBRKcF2sGLg-41" value="" style="edgeStyle=orthogonalEdgeStyle;rounded=0;orthogonalLoop=1;jettySize=auto;html=1;" edge="1" parent="WIyWlLk6GJQsqaUBKTNV-1" source="EGvyy3Lo6LBRKcF2sGLg-43" target="EGvyy3Lo6LBRKcF2sGLg-54">
          <mxGeometry relative="1" as="geometry" />
        </mxCell>
        <mxCell id="EGvyy3Lo6LBRKcF2sGLg-42" value="ne" style="edgeLabel;html=1;align=center;verticalAlign=middle;resizable=0;points=[];" vertex="1" connectable="0" parent="EGvyy3Lo6LBRKcF2sGLg-41">
          <mxGeometry x="-0.1444" y="2" relative="1" as="geometry">
            <mxPoint as="offset" />
          </mxGeometry>
        </mxCell>
        <mxCell id="EGvyy3Lo6LBRKcF2sGLg-43" value="X &amp;lt; Y" style="rhombus;whiteSpace=wrap;html=1;strokeWidth=2;rounded=1;arcSize=12;" vertex="1" parent="WIyWlLk6GJQsqaUBKTNV-1">
          <mxGeometry x="410" y="220" width="80" height="80" as="geometry" />
        </mxCell>
        <mxCell id="EGvyy3Lo6LBRKcF2sGLg-44" value="" style="edgeStyle=orthogonalEdgeStyle;rounded=0;orthogonalLoop=1;jettySize=auto;html=1;" edge="1" parent="WIyWlLk6GJQsqaUBKTNV-1" source="EGvyy3Lo6LBRKcF2sGLg-48" target="EGvyy3Lo6LBRKcF2sGLg-49">
          <mxGeometry relative="1" as="geometry" />
        </mxCell>
        <mxCell id="EGvyy3Lo6LBRKcF2sGLg-45" value="ano" style="edgeLabel;html=1;align=center;verticalAlign=middle;resizable=0;points=[];" vertex="1" connectable="0" parent="EGvyy3Lo6LBRKcF2sGLg-44">
          <mxGeometry x="-0.1" y="-1" relative="1" as="geometry">
            <mxPoint as="offset" />
          </mxGeometry>
        </mxCell>
        <mxCell id="EGvyy3Lo6LBRKcF2sGLg-46" value="" style="edgeStyle=orthogonalEdgeStyle;rounded=0;orthogonalLoop=1;jettySize=auto;html=1;" edge="1" parent="WIyWlLk6GJQsqaUBKTNV-1" source="EGvyy3Lo6LBRKcF2sGLg-48" target="EGvyy3Lo6LBRKcF2sGLg-56">
          <mxGeometry relative="1" as="geometry" />
        </mxCell>
        <mxCell id="EGvyy3Lo6LBRKcF2sGLg-47" value="ne" style="edgeLabel;html=1;align=center;verticalAlign=middle;resizable=0;points=[];" vertex="1" connectable="0" parent="EGvyy3Lo6LBRKcF2sGLg-46">
          <mxGeometry x="-0.2189" y="-1" relative="1" as="geometry">
            <mxPoint as="offset" />
          </mxGeometry>
        </mxCell>
        <mxCell id="EGvyy3Lo6LBRKcF2sGLg-48" value="Y &amp;lt; Z" style="rhombus;whiteSpace=wrap;html=1;strokeWidth=2;rounded=1;arcSize=12;" vertex="1" parent="WIyWlLk6GJQsqaUBKTNV-1">
          <mxGeometry x="410" y="340" width="80" height="80" as="geometry" />
        </mxCell>
        <mxCell id="EGvyy3Lo6LBRKcF2sGLg-49" value="Z" style="ellipse;whiteSpace=wrap;html=1;strokeWidth=2;rounded=1;arcSize=12;" vertex="1" parent="WIyWlLk6GJQsqaUBKTNV-1">
          <mxGeometry x="535" y="360" width="75" height="40" as="geometry" />
        </mxCell>
        <mxCell id="EGvyy3Lo6LBRKcF2sGLg-50" value="" style="edgeStyle=orthogonalEdgeStyle;rounded=0;orthogonalLoop=1;jettySize=auto;html=1;" edge="1" parent="WIyWlLk6GJQsqaUBKTNV-1" source="EGvyy3Lo6LBRKcF2sGLg-54" target="EGvyy3Lo6LBRKcF2sGLg-49">
          <mxGeometry relative="1" as="geometry">
            <mxPoint x="670" y="320.0000000000001" as="targetPoint" />
          </mxGeometry>
        </mxCell>
        <mxCell id="EGvyy3Lo6LBRKcF2sGLg-51" value="ano" style="edgeLabel;html=1;align=center;verticalAlign=middle;resizable=0;points=[];" vertex="1" connectable="0" parent="EGvyy3Lo6LBRKcF2sGLg-50">
          <mxGeometry x="-0.2587" y="-1" relative="1" as="geometry">
            <mxPoint as="offset" />
          </mxGeometry>
        </mxCell>
        <mxCell id="EGvyy3Lo6LBRKcF2sGLg-52" value="" style="edgeStyle=orthogonalEdgeStyle;rounded=0;orthogonalLoop=1;jettySize=auto;html=1;" edge="1" parent="WIyWlLk6GJQsqaUBKTNV-1" source="EGvyy3Lo6LBRKcF2sGLg-54" target="EGvyy3Lo6LBRKcF2sGLg-57">
          <mxGeometry relative="1" as="geometry" />
        </mxCell>
        <mxCell id="EGvyy3Lo6LBRKcF2sGLg-53" value="ne" style="edgeLabel;html=1;align=center;verticalAlign=middle;resizable=0;points=[];" vertex="1" connectable="0" parent="EGvyy3Lo6LBRKcF2sGLg-52">
          <mxGeometry x="-0.0603" relative="1" as="geometry">
            <mxPoint as="offset" />
          </mxGeometry>
        </mxCell>
        <mxCell id="EGvyy3Lo6LBRKcF2sGLg-54" value="X &amp;lt; Z" style="rhombus;whiteSpace=wrap;html=1;strokeWidth=2;rounded=1;arcSize=12;" vertex="1" parent="WIyWlLk6GJQsqaUBKTNV-1">
          <mxGeometry x="530" y="220" width="80" height="80" as="geometry" />
        </mxCell>
        <mxCell id="EGvyy3Lo6LBRKcF2sGLg-56" value="Y" style="ellipse;whiteSpace=wrap;html=1;strokeWidth=2;rounded=1;arcSize=12;" vertex="1" parent="WIyWlLk6GJQsqaUBKTNV-1">
          <mxGeometry x="430" y="460" width="40" height="40" as="geometry" />
        </mxCell>
        <mxCell id="EGvyy3Lo6LBRKcF2sGLg-57" value="X" style="ellipse;whiteSpace=wrap;html=1;strokeWidth=2;rounded=1;arcSize=12;" vertex="1" parent="WIyWlLk6GJQsqaUBKTNV-1">
          <mxGeometry x="650" y="245" width="40" height="30" as="geometry" />
        </mxCell>
      </root>
    </mxGraphModel>
  </diagram>
</mxfile>
